<svg xmlns="http://www.w3.org/2000/svg" xmlns:xlink="http://www.w3.org/1999/xlink" contentStyleType="text/css" data-diagram-type="DESCRIPTION" height="592px" preserveAspectRatio="none" style="width:1286px;height:592px;background:#FFFFFF;" version="1.1" viewBox="0 0 1286 592" width="1286px" zoomAndPan="magnify"><?plantuml 1.2026.6?><defs/><g><g class="title" data-source-line="1"><text fill="#000000" font-family="sans-serif" font-size="14" font-weight="700" lengthAdjust="spacing" textLength="399.998" x="439.7561" y="23.5352">&#1040;&#1074;&#1090;&#1086;&#1084;&#1072;&#1090;&#1080;&#1095;&#1077;&#1089;&#1082;&#1086;&#1077; &#1086;&#1073;&#1085;&#1086;&#1074;&#1083;&#1077;&#1085;&#1080;&#1077; &#1073;&#1072;&#1079;&#1099; &#1079;&#1085;&#1072;&#1085;&#1080;&#1081; (&#1047;&#1072;&#1076;&#1072;&#1085;&#1080;&#1077; 6)</text></g><!--cluster Task6--><g class="cluster" data-qualified-name="Task6" data-source-line="7" id="ent0002"><path d="M8.5,182.4683 L53.4004,182.4683 A3.75,3.75 0 0 1 55.9004,184.9683 L62.9004,204.9566 L1043.5,204.9566 A2.5,2.5 0 0 1 1046,207.4566 L1046,575.0583 A2.5,2.5 0 0 1 1043.5,577.5583 L8.5,577.5583 A2.5,2.5 0 0 1 6,575.0583 L6,184.9683 A2.5,2.5 0 0 1 8.5,182.4683" fill="none" style="stroke:#000000;stroke-width:1.5;"/><line style="stroke:#000000;stroke-width:1.5;" x1="6" x2="62.9004" y1="204.9566" y2="204.9566"/><text fill="#000000" font-family="sans-serif" font-size="14" font-weight="700" lengthAdjust="spacing" textLength="43.9004" x="10" y="198.0034">Task6</text></g><!--entity Wrapper--><g class="entity" data-qualified-name="Task6.Wrapper" data-source-line="8" id="ent0003"><rect fill="#F1F1F1" height="52.9766" rx="2.5" ry="2.5" style="stroke:#181818;stroke-width:0.5;" width="189.4082" x="756.3" y="217.4683"/><text fill="#000000" font-family="sans-serif" font-size="14" lengthAdjust="spacing" textLength="97.4395" x="766.3" y="241.0034">run_update.sh</text><text fill="#000000" font-family="sans-serif" font-size="14" lengthAdjust="spacing" textLength="169.4082" x="766.3" y="257.4917">(&#1086;&#1073;&#1105;&#1088;&#1090;&#1082;&#1072;, &#1076;&#1086; 2 &#1087;&#1086;&#1087;&#1099;&#1090;&#1086;&#1082;)</text></g><!--entity Updater--><g class="entity" data-qualified-name="Task6.Updater" data-source-line="9" id="ent0004"><rect fill="#F1F1F1" height="36.4883" rx="2.5" ry="2.5" style="stroke:#181818;stroke-width:0.5;" width="132.5674" x="540.72" y="359.3383"/><text fill="#000000" font-family="sans-serif" font-size="14" lengthAdjust="spacing" textLength="112.5674" x="550.72" y="382.8734">update_index.py</text></g><!--entity Manifest--><g class="entity" data-qualified-name="Task6.Manifest" data-source-line="10" id="ent0005"><path d="M54.44,505.0783 C54.44,495.0783 152.0049,495.0783 152.0049,495.0783 C152.0049,495.0783 249.5699,495.0783 249.5699,505.0783 L249.5699,547.0548 C249.5699,557.0548 152.0049,557.0548 152.0049,557.0548 C152.0049,557.0548 54.44,557.0548 54.44,547.0548 L54.44,505.0783" fill="#F1F1F1" style="stroke:#181818;stroke-width:0.5;"/><path d="M54.44,505.0783 C54.44,515.0783 152.0049,515.0783 152.0049,515.0783 C152.0049,515.0783 249.5699,515.0783 249.5699,505.0783" fill="none" style="stroke:#181818;stroke-width:0.5;"/><text fill="#000000" font-family="sans-serif" font-size="14" lengthAdjust="spacing" textLength="91.9707" x="64.44" y="532.6134">manifest.json</text><text fill="#000000" font-family="sans-serif" font-size="14" lengthAdjust="spacing" textLength="175.1299" x="64.44" y="549.1017">(&#1093;&#1101;&#1096;&#1080; &#1092;&#1072;&#1081;&#1083;&#1086;&#1074;, id &#1095;&#1072;&#1085;&#1082;&#1086;&#1074;)</text></g><!--entity Source--><g class="entity" data-qualified-name="Task6.Source" data-source-line="11" id="ent0006"><path d="M310.22,490.5783 L351.22,490.5783 A3.75,3.75 0 0 1 353.72,493.0783 L360.72,511.5783 L543.7776,511.5783 A2.5,2.5 0 0 1 546.2776,514.0783 L546.2776,559.0548 A2.5,2.5 0 0 1 543.7776,561.5548 L310.22,561.5548 A2.5,2.5 0 0 1 307.72,559.0548 L307.72,493.0783 A2.5,2.5 0 0 1 310.22,490.5783" fill="#F1F1F1" style="stroke:#181818;stroke-width:0.5;"/><line style="stroke:#181818;stroke-width:0.5;" x1="307.72" x2="360.72" y1="511.5783" y2="511.5783"/><text fill="#000000" font-family="sans-serif" font-size="14" lengthAdjust="spacing" textLength="109.1016" x="317.72" y="532.1134">incoming_docs/</text><text fill="#000000" font-family="sans-serif" font-size="14" lengthAdjust="spacing" textLength="208.5576" x="317.72" y="548.6017">(&#1080;&#1089;&#1090;&#1086;&#1095;&#1085;&#1080;&#1082; &#1085;&#1086;&#1074;&#1099;&#1093; &#1076;&#1086;&#1082;&#1091;&#1084;&#1077;&#1085;&#1090;&#1086;&#1074;)</text></g><!--entity Index--><g class="entity" data-qualified-name="Task6.Index" data-source-line="12" id="ent0007"><path d="M580.8,505.0783 C580.8,495.0783 671.9973,495.0783 671.9973,495.0783 C671.9973,495.0783 763.1945,495.0783 763.1945,505.0783 L763.1945,547.0548 C763.1945,557.0548 671.9973,557.0548 671.9973,557.0548 C671.9973,557.0548 580.8,557.0548 580.8,547.0548 L580.8,505.0783" fill="#F1F1F1" style="stroke:#181818;stroke-width:0.5;"/><path d="M580.8,505.0783 C580.8,515.0783 671.9973,515.0783 671.9973,515.0783 C671.9973,515.0783 763.1945,515.0783 763.1945,505.0783" fill="none" style="stroke:#181818;stroke-width:0.5;"/><text fill="#000000" font-family="sans-serif" font-size="14" lengthAdjust="spacing" textLength="45.2744" x="590.8" y="532.6134">index/</text><text fill="#000000" font-family="sans-serif" font-size="14" lengthAdjust="spacing" textLength="162.3945" x="590.8" y="549.1017">(&#1088;&#1072;&#1073;&#1086;&#1095;&#1080;&#1081; &#1080;&#1085;&#1076;&#1077;&#1082;&#1089; FAISS)</text></g><!--entity Logs--><g class="entity" data-qualified-name="Task6.Logs" data-source-line="13" id="ent0008"><path d="M806.77,502.0783 L806.77,550.0548 A2.5,2.5 0 0 0 809.27,552.5548 L972.7397,552.5548 A2.5,2.5 0 0 0 975.2397,550.0548 L975.2397,509.5783 L965.2397,499.5783 L809.27,499.5783 A2.5,2.5 0 0 0 806.77,502.0783" fill="#F1F1F1" style="stroke:#181818;stroke-width:0.5;"/><path d="M965.2397,499.5783 L965.2397,507.0783 A2.5,2.5 0 0 0 967.7397,509.5783 L975.2397,509.5783" fill="#F1F1F1" style="stroke:#181818;stroke-width:0.5;"/><text fill="#000000" font-family="sans-serif" font-size="14" lengthAdjust="spacing" textLength="108.7393" x="816.77" y="523.1134">logs/update.log</text><text fill="#000000" font-family="sans-serif" font-size="14" lengthAdjust="spacing" textLength="148.4697" x="816.77" y="539.6017">logs/update_log.jsonl</text></g><!--entity Cron--><g class="entity" data-qualified-name="Cron" data-source-line="5" id="ent0001"><ellipse cx="851.0038" cy="51.4883" fill="#F1F1F1" rx="8" ry="8" style="stroke:#181818;stroke-width:0.5;"/><path d="M851.0038,59.4883 L851.0038,86.4883 M838.0038,67.4883 L864.0038,67.4883 M851.0038,86.4883 L838.0038,101.4883 M851.0038,86.4883 L864.0038,101.4883" fill="none" style="stroke:#181818;stroke-width:0.5;"/><text fill="#000000" font-family="sans-serif" font-size="14" lengthAdjust="spacing" textLength="99.3877" x="801.31" y="116.5234">cron (0 6 * * *)</text></g><!--entity Baseline--><g class="entity" data-qualified-name="Baseline" data-source-line="16" id="ent0009"><path d="M1064.39,490.5783 L1105.39,490.5783 A3.75,3.75 0 0 1 1107.89,493.0783 L1114.89,511.5783 L1213.6195,511.5783 A2.5,2.5 0 0 1 1216.1195,514.0783 L1216.1195,559.0548 A2.5,2.5 0 0 1 1213.6195,561.5548 L1064.39,561.5548 A2.5,2.5 0 0 1 1061.89,559.0548 L1061.89,493.0783 A2.5,2.5 0 0 1 1064.39,490.5783" fill="#F1F1F1" style="stroke:#181818;stroke-width:0.5;"/><line style="stroke:#181818;stroke-width:0.5;" x1="1061.89" x2="1114.89" y1="511.5783" y2="511.5783"/><text fill="#000000" font-family="sans-serif" font-size="14" lengthAdjust="spacing" textLength="124.2295" x="1071.89" y="532.1134">Task3/faiss_index</text><text fill="#000000" font-family="sans-serif" font-size="14" lengthAdjust="spacing" textLength="120.9688" x="1071.89" y="548.6017">(&#1073;&#1072;&#1079;&#1086;&#1074;&#1099;&#1081; &#1080;&#1085;&#1076;&#1077;&#1082;&#1089;)</text></g><g class="entity" data-qualified-name="GMN20" data-source-line="31" id="ent0021"><path d="M1062.48,208.3383 L1062.48,239.9583 L946.05,243.9583 L1062.48,247.9583 L1062.48,279.5805 A0,0 0 0 0 1062.48,279.5805 L1271.5103,279.5805 A0,0 0 0 0 1271.5103,279.5805 L1271.5103,218.3383 L1261.5103,208.3383 L1062.48,208.3383 A0,0 0 0 0 1062.48,208.3383" fill="#FEFFDD" style="stroke:#181818;stroke-width:0.5;"/><path d="M1261.5103,208.3383 L1261.5103,218.3383 L1271.5103,218.3383 L1261.5103,208.3383" fill="#FEFFDD" style="stroke:#181818;stroke-width:0.5;"/><text fill="#000000" font-family="sans-serif" font-size="13" lengthAdjust="spacing" textLength="188.0303" x="1068.48" y="225.9066">&#1055;&#1088;&#1080; &#1086;&#1096;&#1080;&#1073;&#1082;&#1077; update_index.py</text><text fill="#000000" font-family="sans-serif" font-size="13" lengthAdjust="spacing" textLength="161.5732" x="1068.48" y="241.2172">&#1089;&#1082;&#1088;&#1080;&#1087;&#1090; &#1087;&#1086;&#1074;&#1090;&#1086;&#1088;&#1103;&#1077;&#1090; &#1079;&#1072;&#1087;&#1091;&#1089;&#1082;</text><text fill="#000000" font-family="sans-serif" font-size="13" lengthAdjust="spacing" textLength="143.4253" x="1068.48" y="256.5277">(&#1076;&#1086; MAX_RETRIES &#1088;&#1072;&#1079;),</text><text fill="#000000" font-family="sans-serif" font-size="13" lengthAdjust="spacing" textLength="186.0117" x="1068.48" y="271.8383">&#1082;&#1072;&#1078;&#1076;&#1072;&#1103; &#1087;&#1086;&#1087;&#1099;&#1090;&#1082;&#1072; &#1083;&#1086;&#1075;&#1080;&#1088;&#1091;&#1077;&#1090;&#1089;&#1103;.</text></g><!--link Cron to Wrapper--><g class="link" data-entity-1="ent0001" data-entity-2="ent0003" data-link-type="dependency" data-source-line="18" id="lnk10"><path d="M851,119.9083 C851,149.7883 851,185.7583 851,212.0483" fill="none" id="Cron-to-Wrapper" style="stroke:#181818;stroke-width:1;"/><polygon fill="#181818" points="851,217.0483,855,208.0483,851,212.0483,847,208.0483,851,217.0483" style="stroke:#181818;stroke-width:1;stroke-linejoin:miter;stroke-miterlimit:10;"/><text fill="#000000" font-family="sans-serif" font-size="13" lengthAdjust="spacing" textLength="145.8564" x="852" y="163.0366">&#1079;&#1072;&#1087;&#1091;&#1089;&#1082; &#1087;&#1086; &#1088;&#1072;&#1089;&#1087;&#1080;&#1089;&#1072;&#1085;&#1080;&#1102;</text></g><!--link Wrapper to Updater--><g class="link" data-entity-1="ent0003" data-entity-2="ent0004" data-link-type="dependency" data-source-line="19" id="lnk11"><path d="M803.08,270.8083 C754.79,296.8583 685.9603,333.984 644.0003,356.624" fill="none" id="Wrapper-to-Updater" style="stroke:#181818;stroke-width:1;"/><polygon fill="#181818" points="639.6,358.9983,649.42,358.2449,644.0003,356.624,645.6212,351.2044,639.6,358.9983" style="stroke:#181818;stroke-width:1;stroke-linejoin:miter;stroke-miterlimit:10;"/><text fill="#000000" font-family="sans-serif" font-size="13" lengthAdjust="spacing" textLength="160.8179" x="730" y="323.1466">python3 update_index.py</text></g><!--link Updater to Source--><g class="link" data-entity-1="ent0004" data-entity-2="ent0006" data-link-type="dependency" data-source-line="21" id="lnk12"><path d="M540.29,384.1383 C508.12,390.2483 471.52,402.8383 448,428.5783 C432.85,445.1583 428.0558,486.0503 426.6458,506.3903" fill="none" id="Updater-to-Source" style="stroke:#181818;stroke-width:1;"/><polygon fill="#181818" points="426.3,511.3783,430.9128,502.6765,426.6458,506.3903,422.932,502.1232,426.3,511.3783" style="stroke:#181818;stroke-width:1;stroke-linejoin:miter;stroke-miterlimit:10;"/><text fill="#000000" font-family="sans-serif" font-size="13" lengthAdjust="spacing" textLength="82.6782" x="493.8303" y="442.1466">1. &#1089;&#1082;&#1072;&#1085;&#1080;&#1088;&#1091;&#1077;&#1090;</text><text fill="#000000" font-family="sans-serif" font-size="13" lengthAdjust="spacing" textLength="172.3389" x="449" y="457.4572">&#1085;&#1086;&#1074;&#1099;&#1077;/&#1080;&#1079;&#1084;&#1077;&#1085;&#1105;&#1085;&#1085;&#1099;&#1077; &#1092;&#1072;&#1081;&#1083;&#1099;</text></g><!--link Updater to Manifest--><g class="link" data-entity-1="ent0004" data-entity-2="ent0005" data-link-type="dependency" data-source-line="22" id="lnk13"><path d="M540.46,379.6783 C400.58,382.6683 86.25,393.2883 54,428.5783 C33.06,451.4983 54.3993,473.4016 84.6693,491.9916" fill="none" id="Updater-to-Manifest" style="stroke:#181818;stroke-width:1;"/><polygon fill="#181818" points="88.93,494.6083,83.3541,486.4898,84.6693,491.9916,79.1675,493.3069,88.93,494.6083" style="stroke:#181818;stroke-width:1;stroke-linejoin:miter;stroke-miterlimit:10;"/><text fill="#000000" font-family="sans-serif" font-size="13" lengthAdjust="spacing" textLength="127.0547" x="55" y="449.6466">2. &#1089;&#1088;&#1072;&#1074;&#1085;&#1080;&#1074;&#1072;&#1077;&#1090; &#1093;&#1101;&#1096;&#1080;</text></g><!--link Updater to Manifest--><g class="link" data-entity-1="ent0004" data-entity-2="ent0005" data-link-type="dependency" data-source-line="27" id="lnk18"><path d="M540.25,382.2983 C449.23,388.2883 291.68,402.1483 241,428.5783 C211.7,443.8583 189.9481,468.721 174.0681,490.931" fill="none" id="Updater-to-Manifest-1" style="stroke:#181818;stroke-width:1;"/><polygon fill="#181818" points="171.16,494.9983,179.6484,490.0036,174.0681,490.931,173.1407,485.3507,171.16,494.9983" style="stroke:#181818;stroke-width:1;stroke-linejoin:miter;stroke-miterlimit:10;"/><text fill="#000000" font-family="sans-serif" font-size="13" lengthAdjust="spacing" textLength="181.2637" x="242" y="449.6466">&#1086;&#1073;&#1085;&#1086;&#1074;&#1083;&#1103;&#1077;&#1090; &#1093;&#1101;&#1096;&#1080; &#1080; id &#1095;&#1072;&#1085;&#1082;&#1086;&#1074;</text></g><!--link Updater to Baseline--><g class="link" data-entity-1="ent0004" data-entity-2="ent0009" data-link-type="dependency" data-source-line="23" id="lnk14"><path d="M673.58,382.5883 C772.28,389.2283 952.2,404.2583 1012,428.5783 C1046.63,442.6683 1076.3348,465.3821 1100.1948,486.8721" fill="none" id="Updater-to-Baseline" style="stroke:#181818;stroke-width:1;stroke-dasharray:7,7;"/><polygon fill="#181818" points="1103.91,490.2183,1099.8995,481.2229,1100.1948,486.8721,1094.5456,487.1673,1103.91,490.2183" style="stroke:#181818;stroke-width:1;stroke-linejoin:miter;stroke-miterlimit:10;"/><text fill="#000000" font-family="sans-serif" font-size="13" lengthAdjust="spacing" textLength="130.2412" x="1065.89" y="442.1466">&#1087;&#1088;&#1080; &#1087;&#1077;&#1088;&#1074;&#1086;&#1084; &#1079;&#1072;&#1087;&#1091;&#1089;&#1082;&#1077;</text><text fill="#000000" font-family="sans-serif" font-size="13" lengthAdjust="spacing" textLength="125.2646" x="1068.3783" y="457.4572">&#1082;&#1086;&#1087;&#1080;&#1088;&#1091;&#1077;&#1090; &#1082;&#1072;&#1082; &#1089;&#1090;&#1072;&#1088;&#1090;</text></g><!--link Updater to Updater--><g class="link" data-entity-1="ent0004" data-entity-2="ent0004" data-link-type="dependency" data-source-line="24" id="lnk15"><path d="M673.72,372.0183 C693.2,372.2083 708.28,374.0683 708.28,377.5783 C708.28,381.0983 698.1998,382.8995 678.7198,383.0895" fill="none" id="Updater-to-Updater" style="stroke:#181818;stroke-width:1;"/><polygon fill="#181818" points="673.72,383.1383,682.7586,387.0503,678.7198,383.0895,682.6806,379.0507,673.72,383.1383" style="stroke:#181818;stroke-width:1;stroke-linejoin:miter;stroke-miterlimit:10;"/><text fill="#000000" font-family="sans-serif" font-size="13" lengthAdjust="spacing" textLength="68.5991" x="781.1938" y="375.1466">3. &#1095;&#1072;&#1085;&#1082;&#1080;&#1085;&#1075;</text><text fill="#000000" font-family="sans-serif" font-size="13" lengthAdjust="spacing" textLength="202.4268" x="714.28" y="390.4572">(RecursiveCharacterTextSplitter)</text></g><!--link Updater to Updater--><g class="link" data-entity-1="ent0004" data-entity-2="ent0004" data-link-type="dependency" data-source-line="25" id="lnk16"><path d="M673.58,369.3283 C768.51,363.5983 922.28,366.3483 922.28,377.5783 C922.28,388.8083 773.5009,391.859 678.5709,386.139" fill="none" id="Updater-to-Updater-1" style="stroke:#181818;stroke-width:1;"/><polygon fill="#181818" points="673.58,385.8383,682.3231,390.3724,678.5709,386.139,682.8043,382.3868,673.58,385.8383" style="stroke:#181818;stroke-width:1;stroke-linejoin:miter;stroke-miterlimit:10;"/><text fill="#000000" font-family="sans-serif" font-size="13" lengthAdjust="spacing" textLength="95.8179" x="928.2927" y="375.1466">4. &#1101;&#1084;&#1073;&#1077;&#1076;&#1076;&#1080;&#1085;&#1075;&#1080;</text><text fill="#000000" font-family="sans-serif" font-size="13" lengthAdjust="spacing" textLength="95.8433" x="928.28" y="390.4572">(BAAI/bge-m3)</text></g><!--link Updater to Index--><g class="link" data-entity-1="ent0004" data-entity-2="ent0007" data-link-type="dependency" data-source-line="26" id="lnk17"><path d="M614.84,396.2483 C625.65,420.5983 643.2422,460.268 656.4422,490.018" fill="none" id="Updater-to-Index" style="stroke:#181818;stroke-width:1;"/><polygon fill="#181818" points="658.47,494.5883,658.4761,484.7394,656.4422,490.018,651.1636,487.984,658.47,494.5883" style="stroke:#181818;stroke-width:1;stroke-linejoin:miter;stroke-miterlimit:10;"/><text fill="#000000" font-family="sans-serif" font-size="13" lengthAdjust="spacing" textLength="186.6021" x="642.45" y="442.1466">5. &#1076;&#1086;&#1073;&#1072;&#1074;&#1083;&#1103;&#1077;&#1090;/&#1091;&#1076;&#1072;&#1083;&#1103;&#1077;&#1090; &#1095;&#1072;&#1085;&#1082;&#1080;,</text><text fill="#000000" font-family="sans-serif" font-size="13" lengthAdjust="spacing" textLength="116.9238" x="677.2891" y="457.4572">&#1089;&#1086;&#1093;&#1088;&#1072;&#1085;&#1103;&#1077;&#1090; &#1080;&#1085;&#1076;&#1077;&#1082;&#1089;</text></g><!--link Updater to Logs--><g class="link" data-entity-1="ent0004" data-entity-2="ent0008" data-link-type="dependency" data-source-line="28" id="lnk19"><path d="M673.65,378.8283 C723.08,382.1683 789.79,393.6283 837,428.5783 C860.6,446.0583 873.5841,472.4047 881.5741,494.5647" fill="none" id="Updater-to-Logs" style="stroke:#181818;stroke-width:1;"/><polygon fill="#181818" points="883.27,499.2683,883.9802,489.4451,881.5741,494.5647,876.4545,492.1585,883.27,499.2683" style="stroke:#181818;stroke-width:1;stroke-linejoin:miter;stroke-miterlimit:10;"/><text fill="#000000" font-family="sans-serif" font-size="13" lengthAdjust="spacing" textLength="137.2998" x="865.53" y="449.6466">6. &#1087;&#1080;&#1096;&#1077;&#1090; &#1083;&#1086;&#1075; &#1079;&#1072;&#1087;&#1091;&#1089;&#1082;&#1072;</text></g><?plantuml-src TLHDJzj04BtlhnZbH2fmMcWvz80K49MGoeLGjOT8aN6Sn2LPMxQfYgfAV1GL2L7AgSV-XIJW9eH2_iBkF-gRjKqIAfGeMOzdtivxRtPZBswxf7wglZvIz-glwk9_gB-hH1-g4I89uQUdxl3RLxSgmMh8mPxgge4-8pL0f6kYDpIdVc5zdJqdj5mK8jhrP627TeSSlnFuqfLn9Tx7fg7hnBPijbqXR2VsGoeueIzfxZajqpF-50jaHxI6e121xUpQJPSAstQqkroWBu8cU5G8zsHjBwZRiMj5hQgSuvxrfJu0cP7gpXDwkgT5KcEy6EipmtMKuhyFxI1mmrcy5AlcoRhxsGhsJU8x4-D4_DixTeHkEhRq6cuKMnyZNs9VVQBFzQaQalu64MuW66IR9wzEa9HLOKdxwSQRMIq06twxxa80Jw87JpPhTT-9IinZg0-vMLIpeYDAZG234yD9ZVGnJ8ChXbA6NF7tGiUTQTGmOKHzW3vw1f4TmyyTW1807TARyaQbaa9iS3vtvi6fGjjlHgLCNwohSYfGmzhGRvl2jtWZlWgHKsA_baeDsukYL4vcPOOd9VAeXtJtLVJSzYGcWzsdXOMLt2PwpHFNXOd7FA36KM9EU1gpMkdiwHyYB-3Yp3eK1_jnovTBzCXW8V8KJa_rG_OBYymnI34Fe7MYZweoDq4b9VG-o0ouHFYEWm_cwxCPsDnm02yoiB6YRupjOmLeokVdeSwoLXxKOEvZ50sPTO95dq_iZ1ugGNSyO-D9lsG8ZCXCKfVFn4nN4ssMhCcKiYLNi6hBTVR2oFlahhLmXXqaRhkVuqhGzcAiYqyWlGJIEMJfGPXhV0oQ6W9ljLpUAEqqtONEqcon6JYKlhBImUuPRMxr1LCeWGdVAjdZL9lpLGdUzz2DnRpBtazFr5CMJ5zhEMn-Ul5zT6HdK7Z6WR1iaT7vDDsJp_hLh1jT8QGVuwhpcgsO_CRKPQD-fqxUyuRe1DRzDvHafe_pW7YKtbxcdeQ96T6ftP0-P-wvpVA7sjRwzjR6UiKS3JKeplEEF0P_M4TzCNqJ8fmrFvaPpCg59LnP9-vV_0C0?></g></svg>